<svg width="39" height="30" viewBox="0 0 39 30" fill="none" xmlns="http://www.w3.org/2000/svg">
<path d="M37 17C38.1046 17 39 16.1046 39 15C39 13.8954 38.1046 13 37 13V17ZM0.585785 13.5858C-0.195263 14.3668 -0.195263 15.6332 0.585785 16.4142L13.3137 29.1421C14.0948 29.9232 15.3611 29.9232 16.1421 29.1421C16.9232 28.3611 16.9232 27.0948 16.1421 26.3137L4.82843 15L16.1421 3.68629C16.9232 2.90524 16.9232 1.63891 16.1421 0.857864C15.3611 0.0768156 14.0948 0.0768156 13.3137 0.857864L0.585785 13.5858ZM37 13L2 13V17L37 17V13Z" fill="#808080"/>
</svg>
