<svg width="53" height="38" viewBox="0 0 53 38" fill="none" xmlns="http://www.w3.org/2000/svg">
<path d="M3 16.5C1.61929 16.5 0.5 17.6193 0.5 19C0.5 20.3807 1.61929 21.5 3 21.5L3 16.5ZM51.7678 20.7678C52.7441 19.7915 52.7441 18.2085 51.7678 17.2322L35.8579 1.32233C34.8816 0.34602 33.2986 0.34602 32.3223 1.32233C31.346 2.29864 31.346 3.88155 32.3223 4.85786L46.4645 19L32.3223 33.1421C31.346 34.1184 31.346 35.7014 32.3223 36.6777C33.2986 37.654 34.8816 37.654 35.8579 36.6777L51.7678 20.7678ZM3 21.5L50 21.5V16.5L3 16.5L3 21.5Z" fill="#F66450"/>
</svg>
