<svg width="107" height="30" viewBox="0 0 107 30" fill="none" xmlns="http://www.w3.org/2000/svg">
<g id="logo">
<g id="logo_2">
<g id="logo_3">
<path id="Vector 5" d="M14.9049 9.37253L21.9994 0H0V24.9934H3.18926L11.1299 14.4493L4.55609 4.55609H11.6506L14.9049 9.37253Z" fill="#C0CCF7"/>
<path id="Vector 6" d="M29.94 6.24829H26.3602L19.1356 15.8161L25.5141 25.449H18.4196L15.3605 20.8278L8.4613 29.94H29.94V6.24829Z" fill="#F66450"/>
</g>
<g id="xetium">
<path d="M45.4104 22.3413L42.3097 18.2273L39.1685 22.3413H37L41.2356 16.8492L37.2027 11.6004H39.3711L42.3299 15.4712L45.2685 11.6004H47.3964L43.3432 16.8492L47.6194 22.3413H45.4104Z" fill="white"/>
<path d="M54.2297 20.7606C55.5132 20.7606 56.5468 20.3282 57.3304 19.4636L58.3842 20.72C57.9113 21.2875 57.3101 21.7198 56.5805 22.0171C55.8645 22.3143 55.0606 22.4629 54.1689 22.4629C53.034 22.4629 52.0275 22.2332 51.1493 21.7739C50.2711 21.301 49.5888 20.6457 49.1024 19.8081C48.6295 18.9704 48.3931 18.0247 48.3931 16.9708C48.3931 15.9305 48.6228 14.9915 49.0821 14.1539C49.555 13.3162 50.1968 12.6677 51.0074 12.2083C51.8316 11.7355 52.757 11.499 53.7838 11.499C54.7566 11.499 55.6416 11.722 56.4387 12.1678C57.2358 12.6002 57.8708 13.2149 58.3437 14.012C58.8166 14.8091 59.0597 15.7279 59.0733 16.7682L50.5413 18.43C50.8115 19.1731 51.2641 19.7473 51.8991 20.1526C52.5476 20.5579 53.3245 20.7606 54.2297 20.7606ZM53.7838 13.1406C53.1083 13.1406 52.5003 13.296 51.9599 13.6067C51.433 13.9174 51.0209 14.3565 50.7237 14.924C50.4265 15.4779 50.2778 16.1264 50.2778 16.8695V17.0722L57.148 15.7752C56.9724 14.9915 56.5805 14.3565 55.9726 13.8702C55.3646 13.3838 54.635 13.1406 53.7838 13.1406Z" fill="white"/>
<path d="M67.4493 21.7131C67.1655 21.9563 66.8143 22.1454 66.3954 22.2805C65.9766 22.4021 65.5443 22.4629 65.0984 22.4629C64.0176 22.4629 63.1799 22.1724 62.5854 21.5915C61.991 21.0105 61.6937 20.1796 61.6937 19.0988V9.24952H63.6393V11.6004H66.7197V13.2014H63.6393V19.0177C63.6393 19.5987 63.7811 20.0445 64.0649 20.3553C64.3621 20.666 64.7809 20.8214 65.3213 20.8214C65.9158 20.8214 66.4225 20.6525 66.8413 20.3147L67.4493 21.7131Z" fill="white"/>
<path d="M69.7906 11.6004H71.7361V22.3413H69.7906V11.6004ZM70.7634 9.53324C70.3851 9.53324 70.0676 9.41165 69.8109 9.16846C69.5677 8.92526 69.4461 8.62803 69.4461 8.27676C69.4461 7.92548 69.5677 7.62824 69.8109 7.38505C70.0676 7.12835 70.3851 7 70.7634 7C71.1417 7 71.4524 7.1216 71.6956 7.36479C71.9523 7.59447 72.0807 7.88495 72.0807 8.23622C72.0807 8.60101 71.9523 8.91175 71.6956 9.16846C71.4524 9.41165 71.1417 9.53324 70.7634 9.53324Z" fill="white"/>
<path d="M85.4622 11.6004V22.3413H83.618V20.72C83.2262 21.274 82.706 21.7063 82.0575 22.0171C81.4225 22.3143 80.7267 22.4629 79.9701 22.4629C78.538 22.4629 77.4099 22.0711 76.5857 21.2875C75.7616 20.4904 75.3495 19.3217 75.3495 17.7815V11.6004H77.295V17.5586C77.295 18.5989 77.545 19.3892 78.0449 19.9297C78.5448 20.4566 79.2608 20.72 80.1931 20.72C81.2199 20.72 82.0305 20.4093 82.625 19.7878C83.2194 19.1663 83.5167 18.2881 83.5167 17.1532V11.6004H85.4622Z" fill="white"/>
<path d="M102.602 11.499C103.953 11.499 105.021 11.8908 105.804 12.6745C106.601 13.4581 107 14.62 107 16.1602V22.3413H105.054V16.3831C105.054 15.3428 104.811 14.5592 104.325 14.0323C103.852 13.5054 103.17 13.2419 102.278 13.2419C101.292 13.2419 100.508 13.5527 99.9272 14.1741C99.3462 14.7821 99.0558 15.6603 99.0558 16.8087V22.3413H97.1102V16.3831C97.1102 15.3428 96.867 14.5592 96.3806 14.0323C95.9078 13.5054 95.2255 13.2419 94.3338 13.2419C93.3475 13.2419 92.5639 13.5527 91.9829 14.1741C91.402 14.7821 91.1115 15.6603 91.1115 16.8087V22.3413H89.166V11.6004H91.0304V13.2014C91.4222 12.6474 91.9356 12.2286 92.5706 11.9449C93.2057 11.6477 93.9285 11.499 94.7391 11.499C95.5768 11.499 96.3199 11.6679 96.9684 12.0057C97.6169 12.3435 98.1168 12.8366 98.468 13.4851C98.8734 12.8636 99.4341 12.3772 100.15 12.026C100.88 11.6747 101.697 11.499 102.602 11.499Z" fill="white"/>
</g>
</g>
</g>
</svg>
